<?xml version="1.0" encoding="iso-8859-1"?>
<!-- Generator: Adobe Illustrator 19.1.0, SVG Export Plug-In . SVG Version: 6.00 Build 0)  -->
<svg version="1.1" xmlns="http://www.w3.org/2000/svg" xmlns:xlink="http://www.w3.org/1999/xlink" x="0px" y="0px"
	 viewBox="0 0 24 24" style="enable-background:new 0 0 24 24;" xml:space="preserve">
<g id="codepen">
	<path d="M8.209,12l-1.33,0.889v-1.779L8.209,12z M11.469,9.82V7.341l-4.164,2.775l1.86,1.244L11.469,9.82z M16.695,10.117
		l-4.164-2.775V9.82l2.304,1.541L16.695,10.117z M7.305,13.883l4.164,2.775V14.18L9.165,12.64L7.305,13.883z M12.531,14.18v2.479
		l4.164-2.775l-1.86-1.244L12.531,14.18z M12,10.743L10.121,12L12,13.257L13.879,12L12,10.743z M22,12c0,5.523-4.477,10-10,10
		C6.477,22,2,17.523,2,12C2,6.477,6.477,2,12,2C17.523,2,22,6.477,22,12z M18.183,10.116c0-0.023-0.002-0.047-0.005-0.069
		c-0.001-0.008-0.003-0.015-0.004-0.023c-0.003-0.015-0.005-0.03-0.009-0.045c-0.002-0.009-0.006-0.017-0.008-0.026
		c-0.004-0.013-0.008-0.026-0.014-0.039c-0.004-0.009-0.008-0.018-0.012-0.026c-0.006-0.012-0.012-0.024-0.018-0.035
		c-0.005-0.008-0.01-0.017-0.015-0.025c-0.007-0.011-0.014-0.022-0.022-0.032c-0.006-0.008-0.012-0.016-0.018-0.023
		c-0.008-0.01-0.017-0.02-0.026-0.029c-0.007-0.007-0.014-0.014-0.021-0.021c-0.01-0.009-0.02-0.017-0.03-0.025
		c-0.008-0.006-0.016-0.012-0.024-0.018c-0.003-0.002-0.006-0.005-0.009-0.007l-5.652-3.768c-0.179-0.119-0.411-0.119-0.59,0
		L6.053,9.674C6.051,9.676,6.048,9.679,6.045,9.681C6.037,9.686,6.029,9.693,6.021,9.699C6.01,9.707,6,9.715,5.991,9.724
		C5.983,9.731,5.976,9.738,5.969,9.745C5.96,9.754,5.951,9.764,5.943,9.774C5.937,9.781,5.93,9.789,5.925,9.797
		c-0.008,0.01-0.015,0.021-0.022,0.032c-0.005,0.008-0.01,0.016-0.015,0.025C5.881,9.865,5.875,9.877,5.869,9.889
		C5.865,9.897,5.861,9.906,5.857,9.915c-0.005,0.013-0.01,0.026-0.014,0.039C5.841,9.962,5.838,9.97,5.835,9.979
		c-0.004,0.015-0.007,0.03-0.009,0.045c-0.001,0.008-0.003,0.015-0.004,0.023c-0.003,0.023-0.005,0.046-0.005,0.069v3.768
		c0,0.023,0.002,0.046,0.005,0.07c0.001,0.007,0.003,0.015,0.004,0.023c0.003,0.015,0.005,0.03,0.009,0.045
		c0.002,0.009,0.005,0.017,0.008,0.026c0.004,0.013,0.008,0.026,0.014,0.039c0.004,0.009,0.008,0.017,0.012,0.026
		c0.006,0.012,0.012,0.024,0.018,0.035c0.005,0.008,0.01,0.016,0.015,0.024c0.007,0.011,0.014,0.022,0.022,0.032
		c0.006,0.008,0.012,0.016,0.018,0.023c0.009,0.01,0.017,0.02,0.027,0.029c0.007,0.007,0.014,0.014,0.021,0.021
		c0.01,0.009,0.02,0.017,0.03,0.025c0.008,0.006,0.016,0.012,0.024,0.018c0.003,0.002,0.006,0.005,0.009,0.007l5.652,3.768
		c0.089,0.06,0.192,0.089,0.295,0.089c0.103,0,0.206-0.03,0.295-0.089l5.652-3.768c0.003-0.002,0.006-0.005,0.009-0.007
		c0.008-0.006,0.016-0.012,0.024-0.018c0.01-0.008,0.021-0.017,0.03-0.025c0.007-0.007,0.014-0.014,0.021-0.021
		c0.009-0.009,0.018-0.019,0.026-0.029c0.006-0.007,0.013-0.015,0.018-0.023c0.008-0.01,0.015-0.021,0.022-0.032
		c0.005-0.008,0.01-0.016,0.015-0.024c0.006-0.012,0.012-0.023,0.018-0.035c0.004-0.008,0.008-0.017,0.012-0.026
		c0.005-0.013,0.009-0.026,0.014-0.039c0.003-0.008,0.006-0.017,0.008-0.026c0.004-0.015,0.007-0.03,0.009-0.045
		c0.001-0.007,0.003-0.015,0.004-0.023c0.003-0.023,0.005-0.046,0.005-0.07V10.116z M17.12,12.889v-1.779L15.791,12L17.12,12.889z"
		/>
</g>
<g id="Layer_1">
</g>
</svg>
