<?xml version="1.0" encoding="iso-8859-1"?>
<!-- Generator: Adobe Illustrator 19.1.0, SVG Export Plug-In . SVG Version: 6.00 Build 0)  -->
<svg version="1.1" xmlns="http://www.w3.org/2000/svg" xmlns:xlink="http://www.w3.org/1999/xlink" x="0px" y="0px"
	 viewBox="0 0 24 24" style="enable-background:new 0 0 24 24;" xml:space="preserve">
<g id="digg">
	<path style="fill-rule:evenodd;clip-rule:evenodd;" d="M1,8.489v7.021h5.617v-9.83h-2.34v2.809H1z M3.34,13.638v-3.277h0.936v3.277
		H3.34z M7.553,15.511h2.34V8.489h-2.34V15.511z M7.553,7.553h2.34V5.681h-2.34V7.553z M23,8.489v9.83h-5.617v-1.872h3.277v-0.936
		h-3.277V8.489H23z M19.723,13.638v-3.277h0.936v3.277H19.723z M16.447,8.489v9.83H10.83v-1.872h3.277v-0.936H10.83V8.489H16.447z
		 M13.17,13.638v-3.277h0.936v3.277H13.17z"/>
</g>
<g id="Layer_1">
</g>
</svg>
