<?xml version="1.0" encoding="iso-8859-1"?>
<!-- Generator: Adobe Illustrator 19.1.0, SVG Export Plug-In . SVG Version: 6.00 Build 0)  -->
<svg version="1.1" xmlns="http://www.w3.org/2000/svg" xmlns:xlink="http://www.w3.org/1999/xlink" x="0px" y="0px"
	 viewBox="0 0 24 24" style="enable-background:new 0 0 24 24;" xml:space="preserve">
<g id="dropbox-alt">
	<path d="M18.119,9.73L22,6.623l-6.129-4.002L12,5.852L8.129,2.621L2,6.623L5.881,9.73L2,12.838l4.117,2.688v2.318l5.894,3.535
		l5.894-3.535v-2.332L22,12.838L18.119,9.73z M6.992,9.73L12,6.638l5.008,3.092L12,12.823L6.992,9.73z M17.588,10.118l3.332,2.668
		l-5.002,3.266l-3.376-2.818L17.588,10.118z M15.918,3.409l5.002,3.266l-3.332,2.668l-5.047-3.116L15.918,3.409z M8.083,3.409
		l3.376,2.818L6.412,9.343L3.08,6.675L8.083,3.409z M6.412,10.118l5.047,3.116l-3.376,2.818L3.08,12.786L6.412,10.118z
		 M17.271,17.485l-5.26,3.155l-5.26-3.155V15.94l1.377,0.899L12,13.608l3.871,3.231l1.4-0.914V17.485z"/>
</g>
<g id="Layer_1">
</g>
</svg>
