<?xml version="1.0" encoding="iso-8859-1"?>
<!-- Generator: Adobe Illustrator 19.1.0, SVG Export Plug-In . SVG Version: 6.00 Build 0)  -->
<svg version="1.1" xmlns="http://www.w3.org/2000/svg" xmlns:xlink="http://www.w3.org/1999/xlink" x="0px" y="0px"
	 viewBox="0 0 24 24" style="enable-background:new 0 0 24 24;" xml:space="preserve">
<g id="stumbleupon">
	<path d="M12,2C6.477,2,2,6.477,2,12s4.477,10,10,10s10-4.477,10-10S17.523,2,12,2z M12,9.567c-0.331,0-0.6,0.269-0.6,0.6v3.667
		c0,1.399-1.134,2.533-2.533,2.533c-1.399,0-2.533-1.134-2.533-2.533v-1.667h1.933v1.6c0,0.331,0.269,0.6,0.6,0.6
		c0.331,0,0.6-0.269,0.6-0.6v-3.6c0-1.399,1.134-2.533,2.533-2.533s2.533,1.134,2.533,2.533V10.9L13.4,11.267L12.6,10.9v-0.733
		C12.6,9.835,12.331,9.567,12,9.567z M17.667,13.833c0,1.399-1.134,2.533-2.533,2.533c-1.399,0-2.533-1.134-2.533-2.533V12.2
		l0.8,0.367l1.133-0.367v1.633c0,0.331,0.269,0.6,0.6,0.6c0.331,0,0.6-0.269,0.6-0.6v-1.6h1.933V13.833z"/>
</g>
<g id="Layer_1">
</g>
</svg>
