<?xml version="1.0" encoding="iso-8859-1"?>
<!-- Generator: Adobe Illustrator 23.0.4, SVG Export Plug-In . SVG Version: 6.00 Build 0)  -->
<svg version="1.1" xmlns="http://www.w3.org/2000/svg" xmlns:xlink="http://www.w3.org/1999/xlink" x="0px" y="0px"
	 viewBox="0 0 24 24" style="enable-background:new 0 0 24 24;" xml:space="preserve">
<g id="Artwork">
	<g id="Layer_1_1_">
	</g>
	<g id="Layer_1_2_">
	</g>
	
		<g id="elements" transform="translate(79.549513, 79.549513) rotate(-45.000000) translate(-79.549513, -79.549513) translate(26.049513, 20.549513)">
		<path id="transmitter" style="fill-rule:evenodd;clip-rule:evenodd;" d="M47.205-35.154v0.038c1.522,0,2.014,0.609,2.014,2.447
			v2.904c0,3.021,1.487,4.355,4.859,4.355h1.03v-2.189h-0.527c-1.908,0-2.587-0.656-2.587-2.482v-3.407
			c0-1.756-0.784-2.716-2.318-2.857v-0.328c1.581-0.152,2.318-1.03,2.318-2.728v-3.056c0-1.862,0.656-2.506,2.587-2.506h0.527
			v-2.178h-1.03c-3.384,0-4.859,1.288-4.859,4.238v2.517c0,1.838-0.503,2.459-2.014,2.459v0.011
			c-0.721,0.047-1.291,0.647-1.291,1.38S46.484-35.201,47.205-35.154z"/>
		<g transform="translate(42.000000, 50.000000)">
			<circle id="Oval-1" style="fill-rule:evenodd;clip-rule:evenodd;" cx="13.044" cy="-86.534" r="1.383"/>
			<circle id="Oval-2" style="fill-rule:evenodd;clip-rule:evenodd;" cx="17.655" cy="-86.534" r="1.383"/>
			<circle id="Oval-3" style="fill-rule:evenodd;clip-rule:evenodd;" cx="22.267" cy="-86.534" r="1.383"/>
		</g>
	</g>
</g>
<g id="Layer_1">
</g>
</svg>
