<?xml version="1.0" standalone="no"?><!-- Generator: Gravit.io --><svg xmlns="http://www.w3.org/2000/svg" xmlns:xlink="http://www.w3.org/1999/xlink" style="isolation:isolate" viewBox="0 0 24 24" width="24" height="24"><g><path d=" M 3 3 L 21 3 L 21 21 L 3 21 L 3 3 Z  M 7.295 9.02 C 7.31 8.871 7.254 8.725 7.143 8.625 L 6.014 7.265 L 6.014 7.062 L 9.52 7.062 L 12.229 13.004 L 14.612 7.062 L 17.954 7.062 L 17.954 7.265 L 16.988 8.19 C 16.905 8.254 16.864 8.358 16.881 8.461 L 16.881 15.262 C 16.864 15.365 16.905 15.469 16.988 15.533 L 17.931 16.458 L 17.931 16.662 L 13.189 16.662 L 13.189 16.458 L 14.166 15.51 C 14.262 15.414 14.262 15.386 14.262 15.239 L 14.262 9.742 L 11.546 16.639 L 11.179 16.639 L 8.018 9.742 L 8.018 14.365 C 7.992 14.559 8.056 14.755 8.193 14.895 L 9.463 16.436 L 9.463 16.639 L 5.862 16.639 L 5.862 16.436 L 7.132 14.895 C 7.268 14.754 7.328 14.557 7.295 14.365 L 7.295 9.02 Z " fill-rule="evenodd" fill="rgb(18,16,14)"/></g></svg>