<?xml version="1.0" encoding="iso-8859-1"?>
<!-- Generator: Adobe Illustrator 19.2.1, SVG Export Plug-In . SVG Version: 6.00 Build 0)  -->
<svg version="1.1" xmlns="http://www.w3.org/2000/svg" xmlns:xlink="http://www.w3.org/1999/xlink" x="0px" y="0px"
	 viewBox="0 0 24 24" style="enable-background:new 0 0 24 24;" xml:space="preserve">
<g id="reddit">
	<path d="m23.900023,12.21127c0,-1.619737 -1.17118,-2.934307 -2.614241,-2.934307c-0.711073,0 -1.338491,0.305168 -1.798598,0.821606c-1.777684,-1.431942 -4.245527,-2.37092 -6.964337,-2.488292l1.192094,-6.267679l3.869076,0.915504c0.041828,1.103299 0.857471,1.995328 1.861339,1.995328c1.024782,0 1.861339,-0.938978 1.861339,-2.089226c0,-1.150248 -0.836557,-2.089226 -1.861339,-2.089226c-0.731987,0 -1.359405,0.469489 -1.6522,1.173723l-4.329183,-1.032876c-0.125484,-0.023474 -0.250967,0 -0.355537,0.070423c-0.10457,0.070423 -0.167311,0.187796 -0.209139,0.328642l-1.317577,6.995387c-2.781552,0.093898 -5.270309,1.009401 -7.068907,2.488292c-0.460106,-0.492963 -1.108438,-0.821606 -1.798598,-0.821606c-1.443061,0 -2.614241,1.314569 -2.614241,2.934307c0,1.197197 0.627418,2.206599 1.54763,2.676088c-0.041828,0.281693 -0.062742,0.586861 -0.062742,0.892029c0,4.507095 4.663805,8.145635 10.436049,8.145635s10.436049,-3.63854 10.436049,-8.145635c0,-0.305168 -0.020914,-0.586861 -0.062742,-0.868555c0.857471,-0.469489 1.505803,-1.502365 1.505803,-2.699562zm-17.881406,2.089226c0,-1.150248 0.836557,-2.089226 1.861339,-2.089226c1.024782,0 1.861339,0.938978 1.861339,2.089226c0,1.150248 -0.836557,2.089226 -1.861339,2.089226c-1.024782,0 -1.861339,-0.938978 -1.861339,-2.089226zm10.394221,5.516496c-1.275749,1.431942 -3.701765,1.525839 -4.412838,1.525839c-0.711073,0 -3.158003,-0.117372 -4.412838,-1.525839c-0.188225,-0.21127 -0.188225,-0.563387 0,-0.774657c0.188225,-0.21127 0.501934,-0.21127 0.69016,0c0.794729,0.892029 2.509671,1.220672 3.743593,1.220672s2.92795,-0.328642 3.743593,-1.220672c0.188225,-0.21127 0.501934,-0.21127 0.69016,0c0.146397,0.234745 0.146397,0.563387 -0.041828,0.774657zm-0.334623,-3.42727c-1.024782,0 -1.861339,-0.938978 -1.861339,-2.089226c0,-1.150248 0.836557,-2.089226 1.861339,-2.089226c1.024782,0 1.861339,0.938978 1.861339,2.089226c0,1.150248 -0.836557,2.089226 -1.861339,2.089226z"/>
</g>
<g id="Layer_1"/>
</svg>