<?xml version="1.0" encoding="iso-8859-1"?>
<!-- Generator: Adobe Illustrator 23.0.4, SVG Export Plug-In . SVG Version: 6.00 Build 0)  -->
<svg version="1.1" xmlns="http://www.w3.org/2000/svg" xmlns:xlink="http://www.w3.org/1999/xlink" x="0px" y="0px"
	 viewBox="0 0 24 24" style="enable-background:new 0 0 24 24;" xml:space="preserve">
	<path d="M2,8h9.586v2H2L2,8z"/>
	<path d="M2,11h9.586v2H2L2,11z"/>
	<path d="M2,14h9.586v2H2L2,14z"/>
	<path d="M2,5h9.586v2H2L2,5z"/>
	<path d="M2,17h9.586v2H2L2,17z"/>
	<path d="M12.85,8h4v2h-4V8z"/>
	<path d="M12.85,11h4v2h-4V11z"/>
	<path d="M12.85,14h4v2h-4V14z"/>
	<path d="M12.85,5h4v2h-4V5z"/>
	<path d="M12.85,17h4v2h-4V17z"/>
	<path d="M18,8h4v2h-4V8z"/>
	<path d="M18,11h4v2h-4V11z"/>
	<path d="M18,14h4v2h-4V14z"/>
	<path d="M18,5h4v2h-4V5z"/>
	<path d="M18,17h4v2h-4V17z"/>
</svg>