<?xml version="1.0" encoding="iso-8859-1"?>
<!-- Generator: Adobe Illustrator 23.0.4, SVG Export Plug-In . SVG Version: 6.00 Build 0)  -->
<svg version="1.1" xmlns="http://www.w3.org/2000/svg" xmlns:xlink="http://www.w3.org/1999/xlink" x="0px" y="0px"
	 viewBox="0 0 24 24" style="enable-background:new 0 0 24 24;" xml:space="preserve">
<g id="Artwork">
	<g id="Layer_1_1_">
	</g>
	<g id="Layer_1_2_">
	</g>
	<g>
		<path d="M2,8.05h9.586v1.895H2L2,8.05z"/>
		<path d="M2,11.144h9.586v1.895H2L2,11.144z"/>
		<path d="M2,14.02h9.586v1.895H2L2,14.02z"/>
		<path d="M2,5h9.586v1.895H2L2,5z"/>
		<path d="M2,17.113h9.586v1.895H2L2,17.113z"/>
		<path d="M12.741,8.05h4.074v1.895h-4.074V8.05z"/>
		<path d="M12.741,11.144h4.074v1.895h-4.074V11.144z"/>
		<path d="M12.741,14.02h4.074v1.895h-4.074V14.02z"/>
		<path d="M12.741,5h4.074v1.895h-4.074V5z"/>
		<path d="M12.741,17.113h4.074v1.895h-4.074V17.113z"/>
		<path d="M17.926,8.137H22v1.895h-4.074V8.137z"/>
		<path d="M17.926,11.231H22v1.895h-4.074V11.231z"/>
		<path d="M17.926,14.107H22v1.895h-4.074V14.107z"/>
		<path d="M17.926,5.087H22v1.895h-4.074V5.087z"/>
		<path d="M17.926,17.2H22v1.895h-4.074V17.2z"/>
	</g>
</g>
<g id="Layer_1">
</g>
</svg>
