<?xml version="1.0" standalone="no"?><!-- Generator: Gravit.io --><svg xmlns="http://www.w3.org/2000/svg" xmlns:xlink="http://www.w3.org/1999/xlink" style="isolation:isolate" viewBox="0 0 24 24" width="24" height="24"><clipPath id="_clipPath_WCxt6rdMwFGHTdtKHT9g66vF4XezpSdt"><path d=" M 3 3.541 L 3 20.459 L 21 20.459 L 21 3.541 L 3 3.541 Z " fill="rgb(255,255,255)"/></clipPath><g clip-path="url(#_clipPath_WCxt6rdMwFGHTdtKHT9g66vF4XezpSdt)"><path d=" M 12.174 3.541 L 12.173 3.541 C 12.158 3.541 12.143 3.541 12.129 3.541 L 12.129 3.541 C 12.129 3.541 11.841 3.544 11.818 3.544 C 11.075 3.544 8.559 3.751 7.372 6.413 C 6.972 7.308 7.068 8.829 7.145 10.051 C 7.154 10.196 7.163 10.345 7.172 10.49 C 7.11 10.524 6.998 10.566 6.822 10.566 C 6.586 10.566 6.307 10.492 5.994 10.345 C 5.911 10.306 5.815 10.286 5.708 10.286 C 5.341 10.286 4.902 10.528 4.834 10.888 C 4.784 11.147 4.9 11.526 5.734 11.855 C 5.809 11.885 5.9 11.913 5.995 11.944 C 6.34 12.053 6.86 12.218 7.001 12.551 C 7.075 12.723 7.045 12.945 6.915 13.21 C 6.912 13.216 6.909 13.222 6.907 13.228 C 6.861 13.335 5.759 15.847 3.313 16.249 C 3.125 16.28 2.99 16.448 3.001 16.638 C 3.004 16.695 3.017 16.751 3.04 16.806 C 3.224 17.235 3.999 17.55 5.409 17.769 C 5.456 17.832 5.505 18.058 5.535 18.195 C 5.564 18.33 5.595 18.47 5.638 18.617 C 5.68 18.762 5.791 18.935 6.075 18.935 C 6.189 18.935 6.325 18.908 6.481 18.878 C 6.716 18.832 7.038 18.769 7.441 18.769 C 7.664 18.769 7.895 18.788 8.128 18.827 C 8.583 18.903 8.97 19.176 9.418 19.492 C 10.059 19.946 10.785 20.459 11.889 20.459 C 11.919 20.459 11.949 20.458 11.98 20.456 C 12.015 20.457 12.062 20.459 12.111 20.459 C 13.215 20.459 13.941 19.946 14.582 19.493 C 15.031 19.176 15.417 18.903 15.872 18.827 C 16.105 18.788 16.336 18.769 16.56 18.769 C 16.944 18.769 17.248 18.818 17.519 18.871 C 17.689 18.904 17.826 18.921 17.926 18.921 L 17.936 18.921 L 17.946 18.921 C 18.156 18.921 18.304 18.81 18.362 18.609 C 18.405 18.465 18.435 18.329 18.465 18.191 C 18.495 18.055 18.544 17.83 18.591 17.767 C 20.002 17.548 20.776 17.234 20.959 16.807 C 20.983 16.752 20.996 16.695 20.999 16.638 C 21.01 16.448 20.876 16.28 20.688 16.249 C 18.24 15.846 17.139 13.335 17.094 13.228 C 17.091 13.222 17.088 13.216 17.085 13.21 C 16.955 12.945 16.926 12.723 16.999 12.551 C 17.14 12.218 17.66 12.053 18.005 11.944 C 18.101 11.913 18.192 11.884 18.266 11.855 C 18.876 11.614 19.182 11.318 19.176 10.975 C 19.171 10.706 18.961 10.466 18.628 10.347 L 18.627 10.347 C 18.515 10.3 18.382 10.275 18.251 10.275 C 18.162 10.275 18.03 10.287 17.907 10.345 C 17.617 10.481 17.356 10.555 17.131 10.565 C 16.982 10.558 16.884 10.52 16.829 10.489 C 16.836 10.366 16.844 10.238 16.852 10.104 L 16.855 10.053 C 16.932 8.83 17.028 7.307 16.628 6.411 C 15.441 3.748 12.919 3.541 12.174 3.541 L 12.174 3.541 Z  M 12.174 3.914 C 12.852 3.914 15.187 4.096 16.288 6.563 C 16.65 7.375 16.557 8.847 16.483 10.029 C 16.471 10.217 16.459 10.399 16.45 10.572 L 16.446 10.647 L 16.496 10.702 C 16.516 10.725 16.704 10.922 17.123 10.938 L 17.13 10.938 L 17.137 10.938 C 17.414 10.927 17.726 10.842 18.065 10.683 C 18.115 10.659 18.181 10.648 18.251 10.648 C 18.332 10.648 18.417 10.663 18.487 10.693 L 18.497 10.697 C 18.675 10.759 18.801 10.877 18.803 10.983 C 18.804 11.043 18.759 11.259 18.129 11.508 C 18.067 11.532 17.986 11.558 17.892 11.588 C 17.483 11.718 16.864 11.914 16.655 12.405 C 16.538 12.682 16.57 13.008 16.75 13.375 C 16.825 13.549 17.994 16.184 20.627 16.617 C 20.626 16.63 20.623 16.643 20.616 16.66 C 20.571 16.765 20.288 17.127 18.523 17.4 C 18.247 17.442 18.179 17.752 18.101 18.112 C 18.073 18.24 18.044 18.37 18.004 18.505 C 17.992 18.545 17.99 18.548 17.946 18.548 C 17.94 18.548 17.933 18.548 17.926 18.548 L 17.926 18.548 C 17.847 18.548 17.728 18.531 17.59 18.504 C 17.34 18.456 16.997 18.396 16.56 18.396 C 16.315 18.396 16.063 18.417 15.811 18.459 C 15.271 18.549 14.832 18.859 14.366 19.188 C 13.742 19.63 13.096 20.086 12.111 20.086 C 12.069 20.086 12.026 20.085 11.984 20.082 L 11.973 20.082 L 11.962 20.083 C 11.938 20.085 11.914 20.086 11.889 20.086 C 10.904 20.086 10.258 19.63 9.634 19.188 C 9.169 18.859 8.729 18.549 8.189 18.459 C 7.937 18.417 7.685 18.396 7.441 18.396 C 7.003 18.396 6.66 18.462 6.41 18.511 C 6.272 18.538 6.153 18.561 6.075 18.561 C 6.011 18.561 6.01 18.558 5.996 18.512 C 5.957 18.377 5.927 18.244 5.899 18.115 C 5.821 17.755 5.753 17.444 5.477 17.402 C 3.712 17.129 3.429 16.765 3.384 16.661 C 3.377 16.644 3.374 16.63 3.373 16.618 C 6.006 16.184 7.175 13.549 7.25 13.375 C 7.43 13.008 7.463 12.682 7.345 12.405 C 7.137 11.914 6.518 11.718 6.108 11.588 C 6.014 11.558 5.933 11.532 5.871 11.508 C 5.339 11.298 5.176 11.086 5.2 10.958 C 5.228 10.81 5.485 10.659 5.708 10.659 C 5.759 10.659 5.803 10.667 5.835 10.683 C 6.199 10.853 6.531 10.939 6.822 10.939 C 7.279 10.939 7.483 10.727 7.504 10.702 L 7.554 10.647 L 7.55 10.573 C 7.541 10.399 7.529 10.217 7.517 10.03 C 7.443 8.848 7.35 7.377 7.713 6.565 C 8.809 4.107 11.132 3.917 11.819 3.917 C 11.835 3.917 12.134 3.914 12.134 3.914 C 12.146 3.914 12.16 3.914 12.174 3.914 Z " fill="rgb(42,42,42)"/></g></svg>