<?xml version="1.0" encoding="iso-8859-1"?>
<!-- Generator: Adobe Illustrator 23.0.4, SVG Export Plug-In . SVG Version: 6.00 Build 0)  -->
<svg version="1.1" xmlns="http://www.w3.org/2000/svg" xmlns:xlink="http://www.w3.org/1999/xlink" x="0px" y="0px"
	 viewBox="0 0 24 24" style="enable-background:new 0 0 24 24;" xml:space="preserve">
<g id="Artwork">
	<g id="Layer_1_1_">
	</g>
	<g id="Layer_1_2_">
	</g>
	<g>
		<g id="g2472" transform="translate(11.886 11.523)">
			<path id="path2474" d="M-2.401,9.455h-4.195c-0.168,0-0.252-0.042-0.252-0.189V-8.313c0-0.126,0.084-0.21,0.252-0.21h4.154
				c0.168,0,0.273,0.063,0.273,0.21v1.091c0,0.147-0.084,0.189-0.252,0.189h-1.867c-0.231,0-0.315,0.084-0.315,0.231V7.755
				c0,0.147,0.084,0.21,0.273,0.21h1.888c0.168,0,0.273,0.063,0.273,0.189v1.112C-2.15,9.392-2.234,9.455-2.401,9.455"/>
		</g>
		<g id="g2476" transform="translate(37.549 30.591)">
			<path id="path2478" d="M-18.486-16.731c-1.112,0.315-1.867,0.965-1.867,2.035v3.063c0,2.287-2.182,2.035-4.888,2.035h-0.42
				c-0.168,0-0.273-0.063-0.273-0.21v-1.049c0-0.147,0.084-0.21,0.252-0.21h0.336c1.615,0,2.748,0.357,2.748-0.944v-2.937
				c0-0.902,0.629-2.161,1.888-2.622c0.084-0.021,0.105-0.063,0.105-0.105c0-0.042-0.021-0.105-0.105-0.147
				c-1.154-0.524-1.888-1.385-1.888-2.412v-3.314c0-1.28-1.133-2.559-2.748-2.559h-0.336c-0.168,0-0.252-0.063-0.252-0.21v-1.049
				c0-0.147,0.105-0.21,0.273-0.21h0.42c2.706,0,4.909,1.93,4.909,4.216v2.79c0,1.049,0.755,1.657,1.888,2.056
				c0.42,0.126,0.65,0.147,0.65,0.482v0.881C-17.772-16.962-17.982-16.878-18.486-16.731"/>
		</g>
		<g id="g2480" transform="translate(23.003 38.914)">
			<path id="path2482" d="M-9.382-28.154c0,0.252-0.231,0.441-0.482,0.441h-1.112c-0.273,0-0.482-0.21-0.482-0.441v-1.007
				c0-0.252,0.231-0.441,0.482-0.441h1.112c0.273,0,0.482,0.21,0.482,0.441C-9.382-29.161-9.382-28.154-9.382-28.154z"/>
		</g>
	</g>
</g>
<g id="Layer_1">
</g>
</svg>
