<?xml version="1.0" encoding="utf-8"?>
<!-- Generator: Adobe Illustrator 21.1.0, SVG Export Plug-In . SVG Version: 6.00 Build 0)  -->
<svg version="1.1" xmlns="http://www.w3.org/2000/svg" xmlns:xlink="http://www.w3.org/1999/xlink" x="0px" y="0px"
	 viewBox="0 0 24 24" enable-background="new 0 0 24 24" xml:space="preserve">
<g id="Adv._Guides">
</g>
<g id="Guides">
</g>
<g id="Layer_3">
	<path d="M18.9,2H5.1C3.4,2,2,3.4,2,5.1v10.4c0,1.7,1.4,3.1,3.1,3.1h3.9L15,22l-1.3-3.3h5.2c1.7,0,3.1-1.4,3.1-3.1V5.1
		C22,3.4,20.6,2,18.9,2z M17.4,6.5c-0.4,0.8-0.8,2.1-1,3.9c-0.3,1.8-0.4,3.1-0.3,4.1c0,0.3,0,0.5-0.1,0.7c-0.1,0.2-0.3,0.4-0.6,0.4
		c-0.3,0-0.6-0.1-0.9-0.4c-1-1-1.8-2.6-2.4-4.6c-0.7,1.4-1.2,2.4-1.6,3.1c-0.6,1.2-1.2,1.8-1.6,1.9c-0.3,0-0.5-0.2-0.8-0.7
		C7.6,13.5,7,10.7,6.4,6.7c0-0.3,0-0.5,0.2-0.7C6.7,5.8,7,5.7,7.3,5.6c0.5,0,0.9,0.2,0.9,0.8c0.3,2.3,0.7,4.2,1.1,5.7l2.4-4.5
		C11.9,7.2,12.1,7,12.5,7c0.5,0,0.8,0.3,0.9,0.9c0.3,1.4,0.6,2.6,1,3.7c0.3-2.7,0.8-4.7,1.4-5.9c0.2-0.3,0.4-0.5,0.7-0.5
		c0.2,0,0.5,0.1,0.7,0.2c0.2,0.2,0.3,0.4,0.3,0.6C17.5,6.2,17.5,6.4,17.4,6.5z"/>
</g>
</svg>