<svg xmlns="http://www.w3.org/2000/svg" viewBox="0 0 24 24"><g><path d="M8.522 17.424l.027.027c1.075-1.075 1.853-.992 3.153.307l2.053 2.053c2.136 2.136 4.13 2.028 6.515-.356l.73-.728-1.548-1.548-.373.373c-1.35 1.35-2.294 1.367-3.586.076l-2.41-2.41c-1.24-1.24-2.474-1.365-3.658-.38l-.232-.232c1.01-1.225.91-2.368-.29-3.568l-2.16-2.162c-1.317-1.317-1.308-2.236.058-3.602l.372-.372-1.54-1.54-.728.73C2.513 6.48 2.38 8.434 4.466 10.52l1.78 1.78c1.3 1.3 1.384 2.095.316 3.163l.008.008c-.476.543-.455 1.37.063 1.89.518.516 1.345.537 1.89.06z" fillRule="evenodd" clipRule="evenodd"/><circle cx="13.089" cy="10.905" r="1.383" fillRule="evenodd" clipRule="evenodd"/><circle cx="16.349" cy="7.644" r="1.383" fillRule="evenodd" clipRule="evenodd"/><circle cx="19.61" cy="4.383" r="1.383" fillRule="evenodd" clipRule="evenodd"/></g></svg>