<svg xmlns="http://www.w3.org/2000/svg" style="isolation:isolate" viewBox="0 0 24 24" width="24" height="24"><g><path d="M3 3h18v18H3V3zm4.295 6.02c.015-.15-.04-.295-.152-.395l-1.13-1.36v-.203H9.52l2.71 5.942 2.382-5.942h3.342v.203l-.966.925c-.083.064-.124.168-.107.27v6.802c-.016.103.025.207.108.27l.943.926v.204h-4.74v-.204l.976-.948c.096-.096.096-.124.096-.27V9.74l-2.716 6.897h-.367L8.017 9.74v4.623c-.026.194.038.39.175.53l1.27 1.54v.204h-3.6v-.204l1.27-1.54c.135-.142.195-.34.162-.53V9.02z" fillRule="evenodd"/></g></svg>