<svg xmlns="http://www.w3.org/2000/svg" viewBox="0 0 24 24"><g><path d="M2 8.05h9.586v1.895H2V8.05zM2 11.144h9.586v1.895H2v-1.896zM2 14.02h9.586v1.895H2V14.02zM2 5h9.586v1.895H2V5zM2 17.113h9.586v1.895H2v-1.895zM12.74 8.05h4.075v1.895H12.74V8.05zM12.74 11.144h4.075v1.895H12.74v-1.896zM12.74 14.02h4.075v1.895H12.74V14.02zM12.74 5h4.075v1.895H12.74V5zM12.74 17.113h4.075v1.895H12.74v-1.895zM17.926 8.137H22v1.895h-4.074V8.137zM17.926 11.23H22v1.896h-4.074V11.23zM17.926 14.107H22v1.895h-4.074v-1.895zM17.926 5.087H22v1.895h-4.074V5.087zM17.926 17.2H22v1.895h-4.074V17.2z"/></g></svg>