<svg xmlns="http://www.w3.org/2000/svg" style="isolation:isolate" viewBox="0 0 24 24" width="24" height="24"><g><clipPath id="a"><path d="M3 3.54v16.92h18V3.54H3z"/></clipPath><g clipPath="url(#a)"><path d="M12.174 3.54h-.045l-.312.004c-.743 0-3.26.207-4.446 2.87-.4.894-.304 2.415-.227 3.637.01.146.018.295.027.44-.062.034-.174.076-.35.076-.236 0-.515-.074-.828-.22-.083-.04-.18-.06-.286-.06-.367 0-.806.242-.874.602-.05.26.066.638.9.967.075.03.166.058.26.09.346.108.866.273 1.007.606.075.173.045.395-.085.66l-.008.018c-.046.107-1.148 2.62-3.594 3.02-.188.032-.323.2-.312.39.004.057.017.113.04.168.184.43.96.744 2.37.963.046.062.095.288.125.425.03.135.06.275.103.422.042.145.153.318.437.318.114 0 .25-.027.406-.057.236-.046.558-.11.96-.11.224 0 .455.02.688.06.455.075.842.348 1.29.664.64.454 1.367.967 2.47.967.03 0 .06-.002.092-.004.035 0 .082.003.13.003 1.105 0 1.83-.514 2.472-.967.45-.317.835-.59 1.29-.666.233-.04.464-.058.688-.058.384 0 .688.048.96.1.17.034.306.05.406.05h.02c.21 0 .358-.11.416-.31.043-.145.073-.28.103-.42.03-.135.08-.36.126-.423 1.412-.22 2.186-.533 2.37-.96.023-.055.036-.112.04-.17.01-.19-.124-.357-.312-.388-2.448-.404-3.55-2.915-3.594-3.022l-.01-.018c-.13-.265-.158-.487-.085-.66.14-.332.66-.497 1.005-.606.096-.03.187-.06.26-.09.61-.24.917-.536.91-.88-.004-.268-.214-.508-.547-.627-.113-.047-.246-.072-.377-.072-.088 0-.22.012-.343.07-.29.136-.55.21-.776.22-.148-.007-.246-.045-.3-.076.006-.124.014-.252.022-.386l.003-.05c.077-1.224.173-2.747-.227-3.643-1.187-2.662-3.71-2.87-4.454-2.87zm0 .374c.678 0 3.013.182 4.114 2.65.362.81.27 2.283.195 3.465-.012.187-.024.37-.033.542l-.004.075.05.055c.02.023.208.22.627.236h.014c.277-.01.59-.096.928-.255.05-.024.116-.035.186-.035.082 0 .167.015.237.045l.01.004c.178.062.304.18.306.286 0 .06-.044.276-.674.525-.063.024-.144.05-.238.08-.41.13-1.028.326-1.237.817-.117.277-.085.603.095.97.075.174 1.244 2.81 3.877 3.242 0 .013-.004.026-.01.043-.046.105-.33.467-2.094.74-.276.042-.344.352-.422.712-.027.128-.056.258-.096.393-.012.04-.014.043-.058.043h-.02c-.08 0-.198-.017-.336-.044-.25-.048-.593-.108-1.03-.108-.245 0-.497.02-.75.063-.54.09-.978.4-1.444.728-.624.442-1.27.898-2.255.898-.04 0-.084 0-.126-.004h-.022c-.024.003-.048.004-.073.004-.986 0-1.632-.456-2.256-.898-.465-.33-.905-.64-1.445-.73-.253-.04-.505-.062-.75-.062-.437 0-.78.066-1.03.115-.138.028-.257.05-.335.05-.064 0-.065-.002-.08-.048-.038-.135-.068-.268-.096-.397-.08-.36-.147-.67-.423-.713-1.765-.273-2.048-.637-2.093-.74-.007-.018-.01-.032-.01-.044 2.632-.434 3.8-3.07 3.876-3.243.18-.367.213-.693.095-.97-.208-.49-.827-.687-1.237-.817-.094-.03-.175-.056-.237-.08-.53-.21-.694-.422-.67-.55.028-.148.285-.3.508-.3.05 0 .095.01.127.025.364.17.696.256.987.256.457 0 .66-.213.682-.238l.05-.055-.004-.074c-.01-.174-.02-.356-.033-.543-.074-1.182-.167-2.653.196-3.465 1.096-2.458 3.42-2.648 4.106-2.648l.314-.003h.04z"/></g></g></svg>