<svg xmlns="http://www.w3.org/2000/svg" viewBox="0 0 24 24"><g><path d="M9.485 20.978H5.29c-.168 0-.252-.042-.252-.19V3.21c0-.126.084-.21.252-.21h4.154c.168 0 .273.063.273.21V4.3c0 .148-.084.19-.252.19H7.598c-.23 0-.315.084-.315.23V19.28c0 .147.084.21.273.21h1.888c.168 0 .273.063.273.19v1.11c.02.127-.065.19-.232.19M19.063 13.86c-1.112.315-1.867.965-1.867 2.035v3.063c0 2.287-2.182 2.035-4.888 2.035h-.42c-.168 0-.273-.063-.273-.21v-1.05c0-.146.084-.21.252-.21h.336c1.615 0 2.748.358 2.748-.943v-2.937c0-.902.63-2.16 1.89-2.622.083-.02.104-.062.104-.104 0-.042-.02-.105-.105-.147-1.155-.525-1.89-1.386-1.89-2.413V7.043c0-1.28-1.132-2.56-2.747-2.56h-.336c-.168 0-.252-.062-.252-.21V3.226c0-.147.105-.21.273-.21h.42c2.706 0 4.91 1.93 4.91 4.216v2.79c0 1.05.754 1.658 1.887 2.057.42.126.65.147.65.482v.88c.022.19-.188.273-.692.42"/><path d="M13.62 10.76c0 .252-.23.44-.48.44h-1.113c-.273 0-.482-.21-.482-.44V9.753c0-.252.23-.44.482-.44h1.112c.272 0 .48.21.48.44v1.007z"/></g></svg>