<svg xmlns="http://www.w3.org/2000/svg" viewBox="0 0 24 24"><rect x="0" fill="none" width="24" height="24"/><g><path d="M8.21 12l-1.33.89v-1.78l1.33.89zm3.26-2.18V7.34l-4.165 2.776 1.86 1.244 2.304-1.54zm5.225.297L12.53 7.342V9.82l2.305 1.54 1.86-1.243zm-9.39 3.766l4.164 2.775V14.18l-2.305-1.54-1.86 1.243zm5.226.297v2.48l4.165-2.776-1.86-1.244-2.304 1.54zM12 10.743L10.12 12 12 13.257 13.88 12 12 10.743zM22 12c0 5.523-4.477 10-10 10S2 17.523 2 12 6.477 2 12 2s10 4.477 10 10zm-3.817-1.884c0-.023-.002-.047-.005-.07 0-.007-.003-.014-.004-.022-.003-.015-.005-.03-.01-.045 0-.01-.005-.018-.007-.027-.004-.013-.008-.026-.014-.04l-.012-.025c-.005-.012-.01-.024-.017-.035l-.015-.025-.022-.032-.018-.023-.026-.03-.02-.02c-.01-.01-.02-.017-.03-.025l-.025-.018-.01-.007-5.65-3.768c-.18-.12-.412-.12-.59 0l-5.654 3.77c-.002 0-.005.004-.008.006l-.024.02-.03.024-.02.02c-.01.01-.02.02-.027.03l-.018.023c-.008.01-.015.02-.022.032l-.015.024c-.007.01-.013.023-.02.035l-.01.025c-.006.013-.01.026-.015.04l-.008.024-.01.044c0 .008-.002.015-.003.023-.003.023-.005.046-.005.07v3.767c0 .023.002.046.005.07 0 .007.003.015.004.023.003.015.005.03.01.045 0 .01.004.017.007.026.004.013.008.026.014.04l.012.025c.005.012.01.024.017.035l.015.024.022.032.018.023.027.03.02.02c.01.01.02.017.03.025l.024.018.01.007 5.65 3.768c.09.06.193.09.296.09.103 0 .206-.03.295-.09l5.652-3.768.01-.007.023-.018.03-.025.02-.02c.01-.01.02-.02.027-.03l.018-.023c.008-.01.015-.02.022-.032l.015-.024.018-.035.012-.026.014-.04.008-.025.01-.045.003-.023c.003-.023.005-.046.005-.07v-3.768zM17.12 12.89v-1.78l-1.33.89 1.33.89z"/></g></svg>