<svg xmlns="http://www.w3.org/2000/svg" viewBox="0 0 24 24"><rect x="0" fill="none" width="24" height="24"/><g><rect x="0" fill="none" width="24" height="24"/><g><path d="M18.12 9.73L22 6.623 15.87 2.62 12 5.853l-3.87-3.23-6.13 4L5.88 9.73 2 12.838l4.117 2.688v2.318l5.894 3.535 5.895-3.536v-2.332L22 12.838 18.12 9.73zm-11.128 0L12 6.638l5.008 3.092L12 12.823 6.992 9.73zm10.596.388l3.332 2.668-5.002 3.266-3.376-2.818 5.046-3.116zm-1.67-6.71l5.002 3.267-3.332 2.668-5.047-3.116L15.92 3.41zm-7.835 0l3.376 2.82L6.41 9.342 3.08 6.675 8.083 3.41zm-1.67 6.71l5.046 3.116-3.377 2.818-5.003-3.266 3.332-2.668zm10.858 7.367l-5.26 3.155-5.26-3.155V15.94l1.378.9L12 13.607l3.87 3.23 1.4-.913v1.56z"/></g></g></svg>