<svg xmlns="http://www.w3.org/2000/svg" viewBox="0 0 24 24"><g><g fill-rule="evenodd" clip-rule="evenodd"><path d="M8.52 17.424l.028.027c1.076-1.076 1.855-.993 3.155.307l2.053 2.053c2.136 2.136 4.13 2.028 6.515-.356l.73-.728-1.548-1.548-.373.372c-1.35 1.35-2.294 1.366-3.585.075l-2.41-2.41c-1.24-1.24-2.474-1.366-3.66-.38l-.23-.233c1.01-1.225.91-2.367-.29-3.568l-2.16-2.16C5.426 7.556 5.434 6.637 6.8 5.27l.374-.372-1.54-1.54-.73.728C2.513 6.48 2.38 8.434 4.467 10.52l1.78 1.78c1.3 1.3 1.383 2.095.315 3.163l.008.008c-.476.544-.455 1.37.063 1.89s1.348.54 1.89.064z"/><g transform="rotate(-45 130.686 -37.868)"><circle cx="13.044" cy="-86.534" r="1.383"/><circle cx="17.655" cy="-86.534" r="1.383"/><circle cx="22.267" cy="-86.534" r="1.383"/></g></g></g></svg>