<svg xmlns="http://www.w3.org/2000/svg" style="isolation:isolate" viewBox="0 0 24 24" width="24" height="24"><rect x="0" fill="none" width="24" height="24"/><g><path d="M20.617 13.92c-.265 1.36-2.37 2.85-4.788 3.14-1.262.15-2.503.288-3.827.228-2.165-.1-3.873-.517-3.873-.517 0 .212.013.412.04.6.28 2.136 2.118 2.264 3.858 2.324 1.756.06 3.32-.433 3.32-.433l.072 1.59s-1.228.658-3.417.78c-1.207.066-2.705-.03-4.45-.493-3.785-1-4.436-5.036-4.536-9.13-.03-1.215-.01-2.36-.01-3.32 0-4.186 2.74-5.413 2.74-5.413 1.384-.635 3.757-.902 6.225-.923h.06c2.467.022 4.842.29 6.225.924 0 0 2.742 1.227 2.742 5.413 0 0 .034 3.09-.383 5.233zm-2.854-4.91v5.07h-2.008V9.16c0-1.037-.436-1.563-1.31-1.563-.964 0-1.447.624-1.447 1.86v2.692h-1.996V9.455c0-1.235-.484-1.86-1.45-1.86-.872 0-1.308.527-1.308 1.564v4.92H6.236V9.01c0-1.034.263-1.858.793-2.467.546-.61 1.26-.92 2.15-.92 1.027 0 1.805.394 2.32 1.184l.5.84.5-.84c.514-.79 1.292-1.185 2.32-1.185.888 0 1.604.312 2.15.92.53.61.793 1.434.793 2.47z" fill-rule="evenodd"/></g></svg>