<svg xmlns="http://www.w3.org/2000/svg" viewBox="0 0 24 24"><g><path d="M19.64 17.086c1.295-1.522 2.068-3.438 2.068-5.52 0-4.958-4.37-8.973-9.763-8.973s-9.763 4.015-9.763 8.972 4.37 8.972 9.763 8.972c1.187.002 2.366-.197 3.486-.59.13-.045.276 0 .357.112.816 1.1 2.09 1.875 3.506 2.19.105.022.207-.046.23-.15.01-.056-.003-.114-.038-.16-1.117-1.448-1.05-3.486.162-4.857l-.006.003zm-3.064-6.575l-2.514 1.91.912 3.022c.046.15-.04.31-.19.356-.085.025-.175.01-.247-.04l-2.592-1.8-2.592 1.8c-.13.09-.307.06-.397-.07-.05-.072-.064-.162-.04-.246l.913-3.022-2.516-1.91c-.126-.094-.15-.274-.055-.4.052-.07.134-.11.22-.112l3.156-.066 1.038-2.98c.052-.15.215-.228.364-.176.082.03.147.093.175.175l1.038 2.982 3.156.066c.158 0 .284.13.283.288-.002.088-.044.17-.114.225z"/></g></svg>