<svg xmlns="http://www.w3.org/2000/svg" viewBox="0 0 24 24"><rect x="0" fill="none" width="24" height="24"/><g><path d="M12 2C6.477 2 2 6.477 2 12s4.477 10 10 10 10-4.477 10-10S17.523 2 12 2zm0 7.567c-.33 0-.6.27-.6.6v3.667c0 1.4-1.134 2.533-2.533 2.533-1.4 0-2.533-1.134-2.533-2.533v-1.667h1.933v1.6c0 .33.27.6.6.6.33 0 .6-.27.6-.6v-3.6c0-1.4 1.134-2.533 2.533-2.533s2.533 1.134 2.533 2.533v.733l-1.133.367-.8-.367v-.733c0-.332-.27-.6-.6-.6zm5.667 4.266c0 1.4-1.134 2.533-2.533 2.533-1.4 0-2.533-1.134-2.533-2.533V12.2l.8.367 1.134-.367v1.633c0 .33.27.6.6.6.33 0 .6-.27.6-.6v-1.6h1.933v1.6z"/></g></svg>