<svg xmlns="http://www.w3.org/2000/svg" viewBox="0 0 24 24"><g><path d="M21.01 9.86c.236-1.003.985-2.004.985-2.004l-3.34-.002C16.778 6.644 14.5 6 11.978 6 9.362 6 7 6.66 5.134 7.877L2 7.88s.74.988.98 1.983c-.61.83-.977 1.852-.977 2.96 0 2.762 2.247 5.004 5.01 5.004 1.577 0 2.984-.732 3.903-1.875l1.065 1.592 1.077-1.606c.483.615 1.106 1.112 1.838 1.448 1.216.56 2.576.614 3.83.15 2.592-.955 3.92-3.84 2.964-6.43-.17-.458-.402-.875-.68-1.247zM7.012 16.82c-2.204 0-3.998-1.794-3.998-3.996 0-2.205 1.794-3.997 3.998-3.997 2.203 0 3.996 1.793 3.996 3.997 0 2.202-1.794 3.995-3.996 3.995zM12 12.46C11.813 9.9 9.702 7.87 7.11 7.82c1.434-.612 3.08-.946 4.867-.946 1.798 0 3.42.324 4.853.966-.525.016-1.056.11-1.576.302C14 8.607 13 9.532 12.44 10.746c-.252.55-.395 1.13-.44 1.713zm6.287 4.133c-1 .37-2.087.326-3.058-.122-.97-.445-1.708-1.243-2.076-2.244-.37-1.002-.328-2.088.118-3.057.447-.97 1.244-1.708 2.246-2.078.452-.167.916-.246 1.372-.247 1.63-.003 3.166.997 3.763 2.613.762 2.065-.298 4.37-2.366 5.135z"/><path d="M6.95 10.307c-1.366 0-2.476 1.11-2.476 2.472 0 1.362 1.11 2.473 2.475 2.473 1.36 0 2.47-1.11 2.47-2.474s-1.11-2.473-2.47-2.473zm0 4.094c-.897 0-1.625-.728-1.625-1.622 0-.893.73-1.62 1.624-1.62.89 0 1.617.727 1.617 1.62 0 .895-.726 1.623-1.618 1.623zM16.98 10.307c-1.363 0-2.473 1.11-2.473 2.472 0 1.362 1.11 2.473 2.474 2.473s2.473-1.11 2.473-2.474-1.11-2.473-2.472-2.473zm0 4.094c-.893 0-1.62-.728-1.62-1.622 0-.893.727-1.62 1.62-1.62.894 0 1.62.727 1.62 1.62 0 .895-.726 1.623-1.62 1.623z"/><path d="M7.778 12.778c0 .458-.373.833-.832.833-.46 0-.832-.373-.832-.832 0-.46.372-.832.832-.832.458 0 .832.373.832.832M16.98 11.947c-.46 0-.83.372-.83.832 0 .457.37.832.83.832.46 0 .832-.374.832-.833 0-.46-.37-.833-.83-.833z"/></g></svg>